<?xml version="1.0" encoding="UTF-8"?>
<svg version="1.1" xmlns="http://www.w3.org/2000/svg" width="500" height="500">
<path d="M0 0 C0.77754639 0.01385742 1.55509277 0.02771484 2.35620117 0.04199219 C17.58023141 0.65139317 30.3886019 10.00359965 43.125 17.5625 C44.18654297 18.19188477 45.24808594 18.82126953 46.34179688 19.46972656 C50.87510173 22.15913293 55.40801764 24.84914033 59.93579102 27.54785156 C68.35820013 32.55606235 76.85356452 37.4183529 85.44091797 42.13842773 C100.55253616 50.53736226 111.27502707 59.03640802 117.546875 75.4453125 C119.2100947 81.53629274 119.273611 87.65980208 119.27026367 93.91918945 C119.27362228 94.83073792 119.2769809 95.74228638 119.28044128 96.68145752 C119.28990023 99.67957949 119.29189186 102.67764531 119.29296875 105.67578125 C119.29618487 107.771744 119.2995492 109.86770653 119.30305481 111.96366882 C119.30903345 116.35233073 119.31089601 120.74097298 119.31030273 125.12963867 C119.31020119 130.73463998 119.32385112 136.3395144 119.34107494 141.94448566 C119.35223 146.27266511 119.35422086 150.60081423 119.35369301 154.92900658 C119.35486792 156.99452336 119.3592621 159.06004106 119.36702538 161.12554359 C119.37689611 164.02299343 119.37391942 166.92017213 119.36791992 169.81762695 C119.37353943 170.65899704 119.37915894 171.50036713 119.38494873 172.36723328 C119.3116378 186.40156732 115.12578104 196.68944455 105.796875 207.140625 C98.8414813 213.44522162 90.36715892 217.81904202 82.25 222.4375 C79.93277679 223.76422907 77.61613865 225.09190002 75.30078125 226.421875 C74.70929794 226.76151276 74.11781464 227.10115051 73.50840759 227.45108032 C67.11272407 231.13165663 60.77634914 234.90996823 54.4375 238.6875 C45.83729442 243.79264771 37.2303014 248.88528603 28.5625 253.875 C27.65346924 254.40818848 26.74443848 254.94137695 25.80786133 255.49072266 C17.5812804 260.1852847 9.76906978 262.9902668 0.25 263 C-1.63332031 263.02900391 -1.63332031 263.02900391 -3.5546875 263.05859375 C-13.8501887 262.33694647 -23.00732397 257.19638182 -31.75 252.125 C-32.83079834 251.50882813 -33.91159668 250.89265625 -35.02514648 250.2578125 C-43.83646402 245.21577722 -52.5832106 240.06277603 -61.3046875 234.8671875 C-68.33357697 230.68410423 -75.41149402 226.58498334 -82.49438477 222.49414062 C-98.54646891 213.17670278 -112.05321706 205.18594542 -117.875 186.5625 C-119.13279564 181.73949539 -119.03716106 176.97050523 -119.05200195 172.02148438 C-119.05857315 171.06627899 -119.06514435 170.11107361 -119.07191467 169.12692261 C-119.09160034 165.97003085 -119.10330221 162.81318666 -119.11328125 159.65625 C-119.11735678 158.57380508 -119.1214323 157.49136017 -119.12563133 156.37611389 C-119.14647585 150.64234612 -119.16078238 144.90860213 -119.17016602 139.17480469 C-119.18120331 133.27846175 -119.21557721 127.382499 -119.25533772 121.48628998 C-119.28160027 116.93065737 -119.28986659 112.37511386 -119.29344749 107.81941223 C-119.29829162 105.64750106 -119.30984282 103.47559328 -119.32848549 101.30375671 C-119.46729386 84.05538364 -118.40192913 70.34297244 -106.5 56.875 C-99.59233049 50.7896721 -92.06279538 46.20376659 -84.0625 41.6875 C-81.73612521 40.36083896 -79.4104701 39.03300283 -77.0859375 37.703125 C-76.49136246 37.36348724 -75.89678741 37.02384949 -75.28419495 36.67391968 C-68.87330289 33.00432504 -62.53181599 29.22092948 -56.1875 25.4375 C-47.61273263 20.34481819 -39.02564355 15.27543601 -30.375 10.3125 C-29.02402222 9.52528564 -29.02402222 9.52528564 -27.64575195 8.72216797 C-18.87242134 3.72966851 -10.2465779 -0.21666367 0 0 Z " fill="#FCFCFC" transform="translate(249.875,118.4375)"/>
</svg>
