<svg width="823" height="972" viewBox="0 0 823 972" fill="none" xmlns="http://www.w3.org/2000/svg">
<path d="M165 5C228.2 66.6 188.5 27.5 252.5 88C316.5 148.5 631 131.179 656.5 124.5C682 117.821 764.5 87 760 55C755.5 23 730 -3 690 34C650 71 730 283 730 283H644C644 283 618 283 559 283C500 283 521 359.8 461 359C401 358.2 387.333 308 388 283C388.333 261.667 403.394 218 461 218C483 218 483 256 461 256C433.486 256 429 297 461 297C488.07 297 530 258 530 228C530 198 500.6 183 419 195C337.4 207 391 283 342 283C293 283 176 283 176 283C176 283 36.2913 347.249 13 293.5C2.90711 270.209 5.35479 241.769 25.9999 227C40.7691 216.434 54.686 214.475 72.4999 218C162.528 235.814 26.8922 373.362 72.4999 453C105.04 509.82 121.462 577.843 185.5 591.5C214.527 597.69 278 593 278 559.5C278 526 278 491 278 457C278 435.73 274 427 252.5 427C232.309 427 199 421.809 199 442C199 465.5 220.111 451.5 238.5 451.5C273.5 451.5 329 444.5 372 465.5C378.952 468.895 375.359 453.736 375.5 446C376.003 418.385 333.936 359.499 336.5 387C342 446 340 481.5 342 559.5C342.296 571.05 327.147 578.985 316.5 574.5C304.264 569.345 312.187 553.058 316.5 540.5C328.711 504.949 378.315 549.133 412.5 533.5C434.165 523.593 465.744 519.846 461 496.5C456.808 475.875 417.475 493.45 412.5 473C406.951 450.192 436.447 444.711 455.5 431C472.729 418.602 482.36 403.588 503.5 405.5C542.005 408.982 468.506 488.063 503.5 504.5C519.936 512.22 550 504.5 550 504.5C550 504.5 726.74 571.401 763.5 496.5C771.264 480.68 759.125 459.512 775.5 453C790.201 447.153 805.111 455.511 812.5 469.5C821.009 485.609 810.428 500.23 798.5 514C788.255 525.826 774.482 522.355 763.5 533.5C733.169 564.28 785.629 601.491 775.5 643.5C760.383 706.194 720.593 737.847 661 762.5C604.164 786.013 582.57 788.914 533 752.5C512 737.074 440.5 709.5 438.5 682.5C436.369 653.734 402 656 401.5 683.5C401 711 401.5 734.5 367.5 734.5C338 734.5 336 766.5 367.5 766.5C399 766.5 401.5 760.5 401.5 807C401.5 853.5 438.5 843.719 438.5 807C438.5 774 430.5 762.5 470 762.5C504 762.5 492.5 742.5 461 742.5L408.5 750.5M311 757.5C311 757.5 213.366 766.142 179 772C144.634 777.858 125.366 781.142 91 787C56.6338 792.858 74.4167 834.091 82 863C99.3122 928.999 180.194 907.798 247.5 919C329.79 932.696 438.969 831.54 461 912C466.982 933.846 461 970 461 970" stroke="white" stroke-width="13"/>
</svg>
