<?xml version="1.0" encoding="UTF-8"?>
<svg version="1.1" xmlns="http://www.w3.org/2000/svg" width="500" height="500">
<path d="M0 0 C1.08583374 -0.02839966 1.08583374 -0.02839966 2.19360352 -0.05737305 C13.08916931 0.07310547 22.40648207 5.51919578 31.625 10.8125 C33.24571411 11.73119873 33.24571411 11.73119873 34.89916992 12.66845703 C43.47338991 17.55647668 51.9440177 22.6120061 60.37768555 27.73803711 C66.01509814 31.15353934 71.68929632 34.47743095 77.4453125 37.6875 C78.07122787 38.03817535 78.69714325 38.38885071 79.34202576 38.75015259 C82.36550164 40.44351029 85.39406511 42.1239081 88.43676758 43.78271484 C101.38302341 51.01324083 113.00103016 60.56031983 117.4921875 75.19921875 C118.85730983 81.384273 119.15266682 87.40180032 119.16113281 93.70141602 C119.16609772 94.59678574 119.17106262 95.49215546 119.17617798 96.41465759 C119.19071693 99.36108181 119.197589 102.30745213 119.203125 105.25390625 C119.20736607 106.77365712 119.20736607 106.77365712 119.21169281 108.32411003 C119.2266547 113.68946465 119.23590216 119.05479261 119.24023438 124.42016602 C119.24570384 129.92842349 119.26970837 135.43643188 119.29820633 140.94461155 C119.31694812 145.20947451 119.32204449 149.47427897 119.32357025 153.73917961 C119.32657307 155.76790663 119.33452009 157.79663322 119.34775543 159.82531929 C119.45413331 177.38911203 118.94350562 193.0108673 106.4375 206.625 C101.82393291 210.95505179 96.63166449 214.09322856 91.16943359 217.24658203 C88.68502551 218.68198053 86.21167655 220.13555244 83.73828125 221.58984375 C71.99525611 228.48023208 60.20401671 235.28846189 48.40209961 242.07739258 C43.39440902 244.95847253 38.39379296 247.84932172 33.41796875 250.78515625 C32.56050049 251.28893799 31.70303223 251.79271973 30.81958008 252.31176758 C29.25514474 253.2321799 27.69349667 254.15735668 26.13549805 255.08862305 C14.26395197 262.05566032 1.68654425 264.48057287 -11.9296875 261.95703125 C-26.8958393 256.99162575 -40.87586369 246.84175604 -54.30639648 238.82739258 C-60.37276956 235.2114321 -66.46203969 231.64386178 -72.60546875 228.16015625 C-73.23205383 227.80453613 -73.85863892 227.44891602 -74.50421143 227.08251953 C-77.51085695 225.37798302 -80.52115119 223.68061666 -83.53662109 221.99169922 C-98.75476904 213.39404035 -112.82782283 204.08540237 -118 186.5 C-118.96907878 180.97315094 -119.14821963 175.64004468 -119.14526367 170.05151367 C-119.14862228 169.13021164 -119.1519809 168.20890961 -119.15544128 167.25968933 C-119.16490123 164.2291019 -119.16689191 161.19857001 -119.16796875 158.16796875 C-119.17118479 156.04958575 -119.17454913 153.93120297 -119.17805481 151.81282043 C-119.1840337 147.37708013 -119.18589599 142.94135928 -119.18530273 138.50561523 C-119.18520119 132.84008033 -119.19885123 127.17467095 -119.21607494 121.50916576 C-119.22722919 117.13466323 -119.22922089 112.76019072 -119.22869301 108.38567543 C-119.22986804 106.29783 -119.23426288 104.20998366 -119.24202538 102.12215233 C-119.25189447 99.19357039 -119.24892005 96.26525678 -119.24291992 93.33666992 C-119.24853943 92.4859491 -119.25415894 91.63522827 -119.25994873 90.75872803 C-119.19382865 77.96834278 -115.84696084 66.2654352 -106.9375 56.75 C-102.12037088 52.30524764 -96.82533979 48.98795263 -91.15332031 45.73730469 C-88.67333351 44.3122964 -86.20772992 42.86391722 -83.7421875 41.4140625 C-71.99696047 34.51952331 -60.20336886 27.70704047 -48.39550781 20.92041016 C-43.42002809 18.05977245 -38.45453508 15.1865979 -33.5234375 12.25 C-22.41576999 5.64613452 -13.18319259 0.26510493 0 0 Z M-80.875 84.625 C-83.16294248 90.47196411 -82.7864707 96.30120389 -80.375 102.0625 C-74.58990781 113.55205592 -65.92666156 123.98661919 -55.984375 132.15625 C-53.39355826 135.21626978 -52.82848692 138.29774522 -52.0625 142.125 C-48.76222245 156.67346371 -41.61966352 168.19758979 -29 176.5 C-17.09911523 183.7031671 -3.4783455 186.56315872 10.2734375 183.85546875 C12.22051174 183.35766514 14.16007696 182.82833439 16.0859375 182.25390625 C23.83204719 180.24988591 28.99239565 180.60336454 36.5625 182.875 C49.52943815 186.62397974 63.9006958 189.38666337 76.375 182.6875 C79.68873686 179.92605261 81.61608448 177.88880765 82.31640625 173.53125 C83.01752258 160.6849895 74.57960946 150.41066329 66.5 141.3125 C65.00940035 139.69959474 63.50976876 138.09497617 62 136.5 C61.32066406 135.77941406 60.64132812 135.05882812 59.94140625 134.31640625 C57.55368635 131.81903116 57.55368635 131.81903116 55 129.5 C54.34 129.5 53.68 129.5 53 129.5 C52.98582031 128.85675781 52.97164062 128.21351563 52.95703125 127.55078125 C52.23022891 113.78082341 46.56944741 101.85244808 36.68359375 92.25 C26.09162739 83.273181 14.14001365 78.10244884 0.25 78.125 C-0.5349585 78.12298584 -1.31991699 78.12097168 -2.12866211 78.11889648 C-8.06981348 78.22176039 -12.87440687 79.53340713 -18.4296875 81.66015625 C-22.61154367 83.02656822 -25.78077164 82.48407658 -30 81.5 C-30.63131836 81.35433594 -31.26263672 81.20867187 -31.91308594 81.05859375 C-34.85021426 80.37821929 -37.78549353 79.69506882 -40.7097168 78.9609375 C-53.97169034 75.66580814 -70.83445989 73.24572121 -80.875 84.625 Z M85 177.5 C84.34 179.15 83.68 180.8 83 182.5 C83.99 183.49 84.98 184.48 86 185.5 C87.65 184.84 89.3 184.18 91 183.5 C90.67 181.85 90.34 180.2 90 178.5 C88.35 178.17 86.7 177.84 85 177.5 Z " fill="#FEFEFE" transform="translate(250,118.5)"/>
<path d="M0 0 C8.35595644 7.74297122 13.77685147 17.99015981 15.7109375 29.1875 C15.71603804 30.66665787 15.71625821 32.1458429 15.7109375 33.625 C16.13935468 38.95641385 19.85196246 42.04377163 23.40795898 45.66015625 C29.62795569 52.00076231 35.92126221 60.38671637 36.0859375 69.625 C35.95697694 74.18413517 34.87634586 76.77859869 31.7109375 80.1875 C26.39861553 82.97995961 22.16292663 83.6679308 16.2109375 83.5625 C15.0350708 83.55923706 15.0350708 83.55923706 13.83544922 83.5559082 C8.57076039 83.45951849 3.93496258 82.66289809 -1.1640625 81.375 C-7.79924057 79.83176995 -11.63198436 80.73865877 -17.60546875 83.890625 C-27.0022922 88.4317391 -39.82945686 86.94641977 -49.55078125 84.15234375 C-62.53280261 79.57807945 -72.24623415 70.00598699 -78.46875 57.890625 C-80.67980729 52.95205908 -81.45413541 48.70445865 -81.8515625 43.3125 C-82.64944052 36.61032463 -85.32272496 33.15372649 -89.96459961 28.60400391 C-96.82115729 21.88162323 -101.82156576 13.98445962 -102.6015625 4.3125 C-102.51997664 -0.06866075 -101.27396215 -2.52145679 -98.2890625 -5.8125 C-92.980372 -8.60969487 -88.73938042 -9.29359395 -82.7890625 -9.1875 C-81.61754639 -9.18314941 -81.61754639 -9.18314941 -80.42236328 -9.17871094 C-75.13549571 -9.07788611 -70.28955977 -8.31021414 -65.1640625 -7.0625 C-59.36408775 -5.68533486 -59.36408775 -5.68533486 -53.9140625 -7.5 C-53.00527344 -8.08587891 -53.00527344 -8.08587891 -52.078125 -8.68359375 C-36.5381427 -18.48939044 -12.82875944 -10.15792556 0 0 Z M-66.1640625 6.125 C-67.2331997 7.45758488 -68.27632907 8.81156112 -69.2890625 10.1875 C-69.76085937 10.82558594 -70.23265625 11.46367187 -70.71875 12.12109375 C-74.78906185 18.1061381 -78.20762474 25.81544918 -77.2890625 33.1875 C-63.46461091 51.9306244 -31.16370736 66.82832313 -9.15234375 73.078125 C-6.22457664 73.46506606 -6.22457664 73.46506606 -3.9453125 71.66796875 C6.7404439 60.30467345 12.28561773 49.47851915 12.19873047 33.72412109 C11.75961886 21.81026069 7.23398011 11.53142437 -1.2890625 3.1875 C-8.64549572 -3.06125424 -17.52296353 -7.99865842 -27.2890625 -8.8125 C-27.98 -8.87566406 -28.6709375 -8.93882812 -29.3828125 -9.00390625 C-43.20519625 -9.69951322 -56.84640448 -4.07432889 -66.1640625 6.125 Z M-96.2890625 1.1875 C-97.28880854 9.01884395 -93.69827829 14.81091267 -89.24609375 21.05078125 C-86.39376971 24.72808822 -86.39376971 24.72808822 -83.2890625 28.1875 C-82.6290625 28.1875 -81.9690625 28.1875 -81.2890625 28.1875 C-81.06992188 27.43726563 -80.85078125 26.68703125 -80.625 25.9140625 C-77.37333841 15.41886208 -72.68070076 7.2831038 -65.2890625 -0.8125 C-70.97876366 -2.42618926 -76.07299377 -3.15137877 -81.9765625 -3.125 C-82.70939453 -3.14111328 -83.44222656 -3.15722656 -84.19726562 -3.17382812 C-89.18913423 -3.17832936 -92.69715386 -2.40440864 -96.2890625 1.1875 Z M-77.2890625 41.1875 C-77.10509733 51.85748002 -72.21617577 61.5763757 -64.9140625 69.25 C-60.73813695 73.06495571 -56.4385435 75.87159585 -51.2890625 78.1875 C-50.33193359 78.66509766 -50.33193359 78.66509766 -49.35546875 79.15234375 C-39.43311148 83.34952022 -25.77836211 82.45633622 -15.84375 78.84375 C-15.33070313 78.6271875 -14.81765625 78.410625 -14.2890625 78.1875 C-15.9252796 74.9150658 -19.52048654 74.37873465 -22.7890625 73.125 C-41.26445595 65.75633699 -59.24246648 55.81631148 -74.34765625 42.8046875 C-75.99599919 41.08082795 -75.99599919 41.08082795 -77.2890625 41.1875 Z M14.7109375 46.1875 C14.49179687 46.93773437 14.27265625 47.68796875 14.046875 48.4609375 C10.79521341 58.95613792 6.10257576 67.0918962 -1.2890625 75.1875 C4.41556422 76.81186829 9.47992989 77.50096925 15.3984375 77.4375 C16.13126953 77.44523437 16.86410156 77.45296875 17.61914062 77.4609375 C21.73165821 77.44610425 25.06685004 77.16631614 28.7109375 75.1875 C30.22575965 72.1578557 30.23153746 69.46243697 29.7109375 66.1875 C27.00884142 58.64940953 22.24486086 51.92909819 16.7109375 46.1875 C16.0509375 46.1875 15.3909375 46.1875 14.7109375 46.1875 Z " fill="#FBFBFB" transform="translate(283.2890625,212.8125)"/>
<path d="M0 0 C2.71131138 2.71131138 2.77492747 5.54860425 3.375 9.1875 C4.39617061 14.90849159 5.9114418 19.10090769 9 24 C9.375 26.8125 9.375 26.8125 9 29 C6.29884708 31.70115292 4.11390471 31.69447131 0.375 32.375 C-3.93399148 33.23503412 -7.69417228 34.08627784 -11.5625 36.1875 C-16.63907285 38.86423841 -16.63907285 38.86423841 -20 38 C-22.60552818 34.42062341 -23.4338802 31.48216003 -23.9375 27.125 C-24.48794719 23.2906884 -25.06263778 20.3550432 -27.125 17.0625 C-29.03287898 13.94629767 -29.61055084 12.56154654 -29 9 C-26.28868862 6.28868862 -23.45139575 6.22507253 -19.8125 5.625 C-13.38385157 4.47751591 -6.12794894 -1.05050553 0 0 Z " fill="#FDFDFD" transform="translate(260,231)"/>
</svg>
